<svg height="40" viewBox="0 0 40 40" width="40" xmlns="http://www.w3.org/2000/svg"><g fill="none" fill-rule="evenodd"><circle cx="20" cy="20" fill="#4a5056" r="20"/><path d="m10 0c-5.52333333 0-10 4.4775-10 10s4.47666667 10 10 10c5.5233333 0 10-4.4775 10-10s-4.4766667-10-10-10zm8.2375 9.53416667c-2.1458333-.35166667-4.1191667-.37083334-5.9191667-.06083334-.2033333-.46916666-.4141666-.9375-.6391666-1.4 1.925-.83333333 3.4708333-1.965 4.6233333-3.40166666 1.125 1.32833333 1.8308333 3.01583333 1.935 4.8625zm-3.2016667-6.06833334c-1.0041666 1.295-2.39 2.31916667-4.155 3.06666667-.8466666-1.55083333-1.81499997-3.06333333-2.90666663-4.53166667.64916666-.16416666 1.32583333-.26166666 2.02583333-.26166666 1.8958333 0 3.64.64916666 5.0358333 1.72666666zm-8.7633333-.8275c1.10916667 1.45166667 2.0925 2.94833334 2.9475 4.48416667-2.025.59583333-4.4425.90166667-7.23666667.92083333.57666667-2.3625 2.1675-4.3275 4.28916667-5.405zm-4.53333333 7.36166667.01083333-.21333333c3.2075-.00416667 5.97416667-.37333334 8.2916667-1.10166667.1941666.39583333.38.79333333.5583333 1.19333333-2.81666667.88083337-5.1375 2.68499997-6.9475 5.39999997-1.19333333-1.4325-1.91333333-3.2725-1.91333333-5.2783333zm3.19083333 6.5083333c1.64083333-2.5733333 3.735-4.2483333 6.3316667-5.0225.7733333 2.0166667 1.3408333 4.0916667 1.7025 6.2166667-2.7908334 1.0758333-5.7941667.555-8.0341667-1.1941667zm9.655.3583334c-.365-1.9608334-.9-3.8775-1.6-5.7475 1.5633333-.2208334 3.2833333-.1633334 5.1658333.1633333-.3641666 2.3216667-1.69 4.3266667-3.5658333 5.5841667z" fill="#fff" fill-rule="nonzero" transform="translate(10 10)"/></g></svg>