<svg height="40" viewBox="0 0 40 40" width="40" xmlns="http://www.w3.org/2000/svg"><g fill="none" fill-rule="evenodd"><circle cx="20" cy="20" fill="#4a5056" r="20"/><path d="m10 1.8025c2.67 0 2.9866667.01 4.0416667.05833333 2.71.12333334 3.9758333 1.40916667 4.0991666 4.09916667.0483334 1.05416667.0575 1.37083333.0575 4.0408333 0 2.6708334-.01 2.9866667-.0575 4.0408334-.1241666 2.6875-1.3866666 3.9758333-4.0991666 4.0991666-1.055.0483334-1.37.0583334-4.0416667.0583334-2.67 0-2.98666667-.01-4.04083333-.0583334-2.71666667-.1241666-3.97583334-1.4158333-4.09916667-4.1-.04833333-1.0541666-.05833333-1.37-.05833333-4.0408333 0-2.67.01083333-2.98583333.05833333-4.04083333.12416667-2.68916667 1.38666667-3.97583334 4.09916667-4.09916667 1.055-.0475 1.37083333-.0575 4.04083333-.0575zm0-1.8025c-2.71583333 0-3.05583333.01166667-4.1225.06-3.63166667.16666667-5.65 2.18166667-5.81666667 5.81666667-.04916666 1.0675-.06083333 1.4075-.06083333 4.12333333 0 2.7158333.01166667 3.0566667.06 4.1233333.16666667 3.6316667 2.18166667 5.65 5.81666667 5.8166667 1.0675.0483333 1.4075.06 4.12333333.06 2.7158333 0 3.0566667-.0116667 4.1233333-.06 3.6283334-.1666667 5.6516667-2.1816667 5.8158334-5.8166667.0491666-1.0666666.0608333-1.4075.0608333-4.1233333 0-2.71583333-.0116667-3.05583333-.06-4.1225-.1633333-3.62833333-2.1808333-5.65-5.8158333-5.81666667-1.0675-.04916666-1.4083334-.06083333-4.1241667-.06083333zm0 4.865c-2.83583333 0-5.135 2.29916667-5.135 5.135 0 2.8358333 2.29916667 5.1358333 5.135 5.1358333 2.8358333 0 5.135-2.2991666 5.135-5.1358333 0-2.83583333-2.2991667-5.135-5.135-5.135zm0 8.4683333c-1.84083333 0-3.33333333-1.4916666-3.33333333-3.3333333 0-1.84083333 1.4925-3.33333333 3.33333333-3.33333333 1.8408333 0 3.3333333 1.4925 3.3333333 3.33333333 0 1.8416667-1.4925 3.3333333-3.3333333 3.3333333zm5.3383333-9.8708333c-.6633333 0-1.2008333.5375-1.2008333 1.2s.5375 1.2 1.2008333 1.2c.6625 0 1.1991667-.5375 1.1991667-1.2s-.5366667-1.2-1.1991667-1.2z" fill="#fff" transform="translate(10 10)"/></g></svg>