<svg height="40" viewBox="0 0 40 40" width="40" xmlns="http://www.w3.org/2000/svg"><g fill="none" fill-rule="evenodd"><circle cx="20" cy="20" fill="#4a5056" r="20"/><path d="m4.41346154 6.62097853v13.13769227h-4.08961539v-13.13769227zm10.40192306-.32653847c4.1338462 0 4.8984616 2.71961535 4.8984616 6.25807684v7.2061539h-4.0819231l-.0008481-6.6777581c-.0109623-1.4718933-.1599933-3.19454958-2.1226135-3.19454958-2.1265384 0-2.4503846 1.65961538-2.4503846 3.37230768v6.5h-4.08076919v-13.13769227h3.91615379v1.79538459h.0557693c.5446154-1.03346153 1.8784615-2.12192306 3.8661538-2.12192306zm-12.4453846-6.2046154c1.30769231 0 2.36769231 1.06153846 2.36769231 2.36692308 0 1.30692307-1.06 2.36846153-2.36769231 2.36846153-1.31192308 0-2.37-1.06153846-2.37-2.36846153 0-1.30538462 1.05807692-2.36692308 2.37-2.36692308z" fill="#fff" transform="translate(10 10)"/></g></svg>