<svg width="106" height="17" xmlns="http://www.w3.org/2000/svg">

 <g>
  <title>background</title>
  <rect fill="none" id="canvas_background" height="19" width="108" y="-1" x="-1"/>
 </g>
 <g>
  <title>Layer 1</title>
  <path stroke="null" id="svg_1" fill="#FFF" fill-rule="nonzero" d="m2.978404,16.030004l0,-11.532692l5.87967,11.532692l3.527275,0l5.87967,-11.387742l0,11.387742l3.630584,0l0,-15.266058l-5.053722,0l-6.044648,11.593834l-5.941339,-11.593834l-5.281425,0l0,15.266058l3.403936,0zm26.508851,0l0,-15.266058l-3.630584,0l0,15.266058l3.630584,0zm18.360593,0l0,-3.011782l-10.768414,0l0,-12.254276l-3.631111,0l0,15.266058l14.400052,0l-0.000527,0zm7.509427,0.309401c5.42532,0 7.40559,-2.063024 7.40559,-5.36365l0,-10.211808l-3.630584,0l0,10.046303c0,1.795263 -1.113738,2.702909 -3.816119,2.702909c-2.145776,0 -3.260041,-0.88709 -3.610555,-1.547004l-2.97067,1.361469c0.516019,1.19649 2.104136,3.011782 6.622337,3.011782zm19.722062,0c5.198672,0 9.53081,-2.455177 9.53081,-7.942693c-0.000527,-5.486989 -4.414891,-7.942166 -9.53081,-7.942166c-5.116446,0 -9.510781,2.455177 -9.510781,7.942166c0,5.487516 4.311582,7.942693 9.510781,7.942693zm0,-3.011782c-3.79609,0 -5.920783,-1.959714 -5.920783,-4.930911c0,-2.97067 2.124693,-4.847631 5.920783,-4.847631c3.795563,0 5.920256,1.876961 5.920256,4.847631c0,2.971197 -2.124166,4.930911 -5.920256,4.930911zm16.132064,2.702382l0,-10.913363l10.191252,10.913363l3.548358,0l0,-15.266058l-3.466133,0l0,10.45954l-9.736902,-10.45954l-4.022738,0l0,15.266058l3.486162,0z"/>
 </g>
</svg>