<svg width="200" height="31" xmlns="http://www.w3.org/2000/svg"><path d="M6.458 29.55V7.67L17.613 29.55h6.692L35.46 7.945V29.55h6.888V.587H32.76L21.292 22.583 10.02.587H0V29.55h6.458zm50.293 0V.587h-6.888V29.55h6.888zm34.834 0v-5.714h-20.43V.587h-6.889V29.55h27.32zm14.247.587c10.293 0 14.05-3.914 14.05-10.176V.587h-6.888v19.06c0 3.406-2.113 5.128-7.24 5.128-4.071 0-6.185-1.683-6.85-2.935l-5.636 2.583c.979 2.27 3.992 5.714 12.564 5.714zm37.417 0c9.863 0 18.082-4.658 18.082-15.069C161.33 4.658 152.955 0 143.249 0c-9.707 0-18.044 4.658-18.044 15.068 0 10.411 8.18 15.069 18.044 15.069zm0-5.714c-7.202 0-11.233-3.718-11.233-9.355 0-5.636 4.031-9.197 11.233-9.197 7.201 0 11.232 3.561 11.232 9.197 0 5.637-4.03 9.355-11.232 9.355zm30.606 5.127V8.845L193.19 29.55h6.732V.587h-6.576v19.844L174.873.587h-7.632V29.55h6.614z" fill-rule="nonzero" fill="#1D242C"/></svg>