<svg width="28" height="42" xmlns="http://www.w3.org/2000/svg"><g transform="translate(2 2)" fill="none" fill-rule="evenodd"><circle fill="#FFF" cx="12" cy="11.5" r="6"/><path d="M12-1c6.95 0 13 5.642 13 12.403 0 3.148-1.167 6.603-3.57 11.089-.996 1.859-2.199 3.895-3.839 6.53-.946 1.52-4.574 7.24-4.745 7.511L12 37.875l-.846-1.342c-.171-.272-3.8-5.99-4.745-7.511-1.64-2.635-2.843-4.671-3.84-6.53C.168 18.006-1 14.552-1 11.403-1 4.643 5.051-1 12-1zm0 16.5a3.5 3.5 0 100-7 3.5 3.5 0 000 7z" stroke="#FFF" stroke-width="2" fill="#4A5056" fill-rule="nonzero"/></g></svg>